<svg id="SvgjsSvg1008" xmlns="http://www.w3.org/2000/svg" version="1.1" xmlns:xlink="http://www.w3.org/1999/xlink" xmlns:svgjs="http://svgjs.com/svgjs" width="9" height="9"><defs id="SvgjsDefs1009"></defs><path id="SvgjsPath1010" d="M588.7 169.165L586.125 171.74099999999999L586.125 165.125C586.125 164.78 585.845 164.5 585.5 164.5C585.155 164.5 584.875 164.78 584.875 165.125L584.875 171.74099999999999L582.299 169.165C582.055 168.921 581.66 168.921 581.4159999999999 169.165C581.1709999999999 169.41 581.1709999999999 169.80499999999998 581.4159999999999 170.04899999999998L584.9509999999999 173.58399999999997C585.1009999999999 173.73399999999998 585.3059999999999 173.77999999999997 585.4999999999999 173.74599999999998C585.6939999999998 173.77999999999997 585.8999999999999 173.73299999999998 586.0499999999998 173.58399999999997L589.5849999999998 170.04899999999998C589.8289999999998 169.80499999999998 589.8289999999998 169.409 589.5849999999998 169.165C589.3399999999998 168.921 588.9439999999998 168.921 588.6999999999998 169.165Z " fill="#333435" transform="matrix(1,0,0,1,-581,-165)"></path></svg>